<svg xmlns="http://www.w3.org/2000/svg" version="1.1" xmlns:xlink="http://www.w3.org/1999/xlink" width="100%" height="480"><svg version="1.1" id="SvgjsSvg1001" xmlns="http://www.w3.org/2000/svg" xmlns:xlink="http://www.w3.org/1999/xlink" x="0px" y="0px" width="100%" viewBox="0 0 528 480" enable-background="new 0 0 528 480" xml:space="preserve">
<path fill="#000000" opacity="1.000000" stroke="none" d="
M87.037483,235.841278 
	C94.530373,235.831085 101.529541,235.838181 108.528542,235.807495 
	C115.514549,235.776855 115.653969,235.779099 116.597122,228.793854 
	C119.538757,207.007431 126.823158,186.791672 138.381592,168.123581 
	C140.832642,164.164871 143.468384,160.283112 146.387726,156.663254 
	C148.850067,153.610077 148.827179,151.401337 145.947266,148.593201 
	C138.551987,141.382294 131.304382,134.011993 124.195229,126.518066 
	C118.295448,120.298965 117.835732,112.658028 122.611946,106.576202 
	C128.151276,99.522652 138.138702,98.772667 145.136139,105.298599 
	C152.563110,112.225113 159.794434,119.379791 166.795410,126.735413 
	C169.501266,129.578354 171.436249,130.170868 174.723816,127.689278 
	C197.241348,110.692093 222.270859,99.692108 250.516296,96.663483 
	C254.632706,96.222099 256.115845,94.351471 255.999481,90.144600 
	C255.736908,80.653709 255.813751,71.146820 256.015900,61.652054 
	C256.146729,55.506233 258.170227,50.046326 264.138824,47.206120 
	C269.433136,44.686783 274.841980,44.822224 279.831299,48.184422 
	C284.326538,51.213661 285.946045,55.706650 286.422791,60.995144 
	C287.307373,70.807480 286.472107,80.622475 286.810425,90.435669 
	C286.960419,94.786674 288.781219,96.195145 292.666534,96.680351 
	C319.877380,100.078529 344.382294,110.220039 366.394989,126.506927 
	C371.894958,130.576279 371.920654,130.548553 376.940155,125.562195 
	C383.442352,119.102951 389.932587,112.631630 396.440918,106.178558 
	C400.443329,102.210121 405.106659,99.945709 410.877716,101.038963 
	C422.771576,103.292114 427.232086,116.576477 418.951202,125.697151 
	C412.011200,133.340958 404.777771,140.735001 397.387756,147.946030 
	C394.092865,151.161102 393.996887,153.530045 396.751160,157.242432 
	C412.835114,178.921539 422.975128,203.118835 426.358307,229.978104 
	C426.931122,234.525848 428.780701,236.086273 433.408600,235.945938 
	C443.563416,235.638000 453.745392,235.630493 463.898041,236.000671 
	C475.838196,236.436020 482.752258,248.263367 477.265076,258.494049 
	C474.390350,263.854004 469.471008,266.158478 463.628784,266.257629 
	C453.299774,266.432922 442.963654,266.466431 432.635651,266.277893 
	C428.933502,266.210297 427.176086,267.379578 426.732239,271.163544 
	C423.576569,298.066895 413.525818,322.268341 397.656891,344.102081 
	C395.815735,346.635315 396.506927,348.720459 397.618958,351.044006 
	C402.724121,361.710968 407.821320,372.381744 412.920380,383.051636 
	C413.422760,384.102875 413.907104,385.162872 414.418762,386.209564 
	C415.703217,388.837311 416.110687,391.413330 413.310822,393.298798 
	C410.539886,395.164795 407.921661,394.484222 405.636719,392.250824 
	C399.202332,385.961578 392.762848,379.677246 386.366333,373.349548 
	C378.739471,365.804718 378.852264,365.904510 370.490814,372.565094 
	C347.402161,390.957153 321.126190,402.019745 291.897064,405.847321 
	C287.382324,406.438538 286.178741,408.557220 286.446442,412.350250 
	C287.128204,422.010223 286.645905,431.659912 286.346863,441.310791 
	C285.988434,452.877441 275.868378,459.823578 265.143188,455.927399 
	C259.492615,453.874695 256.042145,448.109680 255.952148,440.132660 
	C255.844986,430.635010 255.789917,421.133423 255.953415,411.637726 
	C256.016357,407.981964 254.953110,406.503693 251.036240,405.940979 
	C219.814301,401.455505 191.736389,389.724701 167.873962,368.749664 
	C164.915848,366.149506 162.953171,366.608673 160.396332,369.251770 
	C153.098999,376.795380 145.615067,384.159393 138.157730,391.546783 
	C135.743088,393.938751 133.058792,396.526337 129.516571,393.778015 
	C126.200638,391.205261 127.386673,388.048157 128.960220,384.800262 
	C134.479004,373.409149 139.749466,361.897644 145.276566,350.510681 
	C146.441345,348.111023 146.464478,346.282410 144.846863,344.124298 
	C132.903244,328.189880 124.865944,310.391235 119.891464,291.168182 
	C118.221764,284.715912 116.934464,278.179260 116.391586,271.527679 
	C116.073814,267.634216 114.239166,266.158752 110.245094,266.240601 
	C99.918045,266.452118 89.577362,266.494385 79.253868,266.196930 
	C73.078941,266.018982 67.851532,263.523865 65.368553,257.332855 
	C63.094524,251.662811 63.481335,246.223587 67.603416,241.412201 
	C70.726868,237.766464 74.930695,236.319122 79.548531,235.951233 
	C81.868431,235.766418 84.211243,235.869247 87.037483,235.841278 
M336.299622,381.797760 
	C348.710297,375.391815 360.573425,368.205994 371.634460,357.284027 
	C365.836517,351.851746 360.300415,346.839722 354.979370,341.608948 
	C352.123871,338.801880 349.799774,338.921082 346.836365,341.503082 
	C327.860077,358.036652 305.598846,366.828522 280.650665,368.927551 
	C277.083527,369.227692 276.131989,370.704468 276.226166,373.938599 
	C276.395752,379.764069 276.518585,385.604156 276.290192,391.423584 
	C276.121582,395.719299 277.892761,396.943695 281.949890,396.593262 
	C300.718842,394.972107 318.627960,390.254669 336.299622,381.797760 
M206.626740,381.862122 
	C223.617432,389.945007 241.295654,395.260406 260.254211,396.180450 
	C264.981598,396.409912 266.024994,394.961029 265.819122,390.735626 
	C265.560211,385.421722 265.548218,380.072052 265.853760,374.762207 
	C266.084320,370.755829 264.669434,369.173218 260.642883,368.809753 
	C243.511719,367.263458 227.460159,362.087067 212.438461,353.728943 
	C206.155716,350.233246 200.594299,345.710052 195.059341,341.176880 
	C192.221130,338.852386 190.064651,338.779999 187.476562,341.796051 
	C183.799164,346.081451 179.855042,350.197479 175.621033,353.927429 
	C172.068832,357.056702 172.181107,358.983490 175.850708,362.029083 
	C185.139465,369.738342 195.373764,375.887268 206.626740,381.862122 
M396.643860,245.804626 
	C401.141113,245.797104 405.638550,245.811142 410.135620,245.776947 
	C416.784576,245.726379 417.217499,245.394135 416.728729,238.587662 
	C415.975220,228.095612 413.735535,217.868805 410.776855,207.784683 
	C405.013336,188.140686 394.995239,170.834747 382.110291,155.057495 
	C379.929626,152.387360 377.970123,152.063980 375.556915,154.553421 
	C371.386230,158.855972 367.360840,163.320953 362.943939,167.355972 
	C359.796906,170.230957 359.846710,172.205765 362.623413,175.499954 
	C378.213776,193.995514 386.942749,215.499481 388.979645,239.541199 
	C389.403320,244.542053 390.709412,246.636673 396.643860,245.804626 
M171.773529,186.344574 
	C174.791351,182.368042 177.650436,178.256180 180.884003,174.463593 
	C182.965195,172.022614 182.883835,170.310226 180.609650,168.130661 
	C176.161316,163.867493 171.756973,159.539658 167.609238,154.988159 
	C164.795700,151.900726 162.905914,152.478760 160.479797,155.422272 
	C153.995483,163.289398 148.274124,171.649551 143.374023,180.578934 
	C133.116287,199.271454 127.623016,219.324738 126.124634,240.550278 
	C125.852325,244.407684 127.103775,246.052628 131.133820,245.860718 
	C136.286667,245.615341 141.483871,245.481201 146.617172,245.878235 
	C151.622879,246.265366 153.282578,244.255066 153.682236,239.450607 
	C155.255890,220.532288 161.226257,203.020752 171.773529,186.344574 
M352.045410,162.974167 
	C358.308380,156.838089 364.571320,150.702011 370.733826,144.664352 
	C357.387848,126.063896 299.301270,102.145462 279.767181,106.979332 
	C283.502563,114.791626 287.409241,122.458405 290.831238,130.335754 
	C292.491974,134.158783 295.044891,135.906082 298.952362,136.679932 
	C309.478638,138.764618 319.313293,142.739197 328.800171,147.749527 
	C336.938416,152.047592 343.780731,158.169647 352.045410,162.974167 
M361.849152,309.404816 
	C363.427124,307.409821 363.704987,305.509644 362.488251,303.012543 
	C355.572784,288.820282 348.815216,274.550629 342.086792,260.268219 
	C340.804840,257.546967 339.054352,256.284576 335.921326,256.321686 
	C325.613281,256.443817 315.302307,256.335114 304.992584,256.285309 
	C302.263763,256.272125 299.603394,256.126190 298.740662,259.675598 
	C297.796234,263.561157 294.336182,266.873322 298.942627,271.283722 
	C312.751129,284.504425 326.045227,298.261353 339.599182,311.749634 
	C343.338013,315.470367 347.283325,318.983521 351.369720,322.812897 
	C355.628662,318.838928 358.224670,314.156586 361.849152,309.404816 
M262.007263,108.768745 
	C262.370697,104.708870 259.252716,106.214676 257.624756,106.366394 
	C237.317978,108.258911 218.138000,113.896957 200.199341,123.738480 
	C191.391891,128.570435 183.201859,134.248840 175.536865,140.691940 
	C174.091843,141.906616 171.115616,143.308807 173.475571,145.814377 
	C179.242706,151.937378 185.044220,158.064133 191.593781,163.480164 
	C207.689133,149.463089 225.250076,139.731125 245.932999,136.325348 
	C248.503036,135.902145 249.844589,134.220032 250.910721,131.942535 
	C254.441666,124.399803 258.134033,116.932648 262.007263,108.768745 
M185.561310,292.006500 
	C183.823837,295.601196 182.068634,299.187439 180.358109,302.794891 
	C179.720978,304.138580 178.871323,305.554077 179.705780,307.059418 
	C182.905701,312.832245 186.685181,318.153564 191.457687,322.805084 
	C192.581802,321.958313 193.160248,321.623230 193.615158,321.165375 
	C210.389496,304.283600 227.161072,287.399048 243.901627,270.483826 
	C245.368042,269.002106 247.465286,267.522156 245.750946,264.986481 
	C243.624084,261.840668 244.454483,256.287384 238.334732,256.367249 
	C228.516113,256.495361 218.685699,256.584503 208.877106,256.227386 
	C204.395844,256.064240 201.884583,257.492157 200.038544,261.610382 
	C195.551392,271.620422 190.651382,281.445374 185.561310,292.006500 
M336.165253,193.665054 
	C333.823242,196.027512 331.518951,198.429031 329.126617,200.739380 
	C327.377380,202.428665 326.786774,204.139771 327.925720,206.512115 
	C333.681610,218.501282 339.363098,230.526443 345.006836,242.568909 
	C346.035095,244.763031 347.435669,245.922165 349.975891,245.884232 
	C358.124939,245.762482 366.276398,245.711029 374.425995,245.767822 
	C377.724640,245.790787 378.837250,244.360977 378.548828,241.171280 
	C376.852203,222.409027 370.759430,205.193756 360.337891,189.540680 
	C357.802063,185.731873 355.186432,181.891525 350.709961,178.129944 
	C345.940887,183.231934 341.300690,188.196091 336.165253,193.665054 
M205.548553,192.951569 
	C201.785995,189.180679 197.891647,185.529755 194.309540,181.594620 
	C192.105545,179.173401 190.469406,178.920929 188.345398,181.569321 
	C174.443909,198.902954 166.010620,218.448166 164.148041,240.706238 
	C163.854645,244.212341 164.922668,245.931137 168.816986,245.819504 
	C176.302383,245.604935 183.801971,245.619202 191.288132,245.820160 
	C194.602737,245.909119 196.469818,244.674728 197.831741,241.710297 
	C201.721817,233.242981 205.845245,224.883148 209.841141,216.464081 
	C215.946060,203.601440 215.933319,203.595398 205.548553,192.951569 
M276.871155,178.725830 
	C277.372131,192.044327 275.979889,205.341431 276.549988,218.677017 
	C276.797150,224.457779 281.663452,223.363159 284.528046,225.260254 
	C286.893707,226.826935 288.706268,226.019440 290.619904,224.083633 
	C297.057770,217.571060 303.576813,211.132431 310.244598,204.856491 
	C312.908905,202.348709 312.991241,200.077835 311.462372,196.918060 
	C301.459839,176.246048 291.616699,155.496948 281.701202,134.782745 
	C280.239716,131.729599 278.670898,128.727844 276.866669,125.134552 
	C276.866669,143.262802 276.866669,160.526901 276.871155,178.725830 
M309.499969,328.042419 
	C319.527344,328.042419 329.554688,328.042419 340.620544,328.042419 
	C339.262848,326.288330 338.837555,325.596161 338.278717,325.037659 
	C322.401703,309.169464 306.441620,293.383453 290.668671,277.412659 
	C286.366333,273.056335 283.465973,277.956879 279.925232,278.448486 
	C277.188385,278.828461 276.279205,280.819916 276.289917,283.534607 
	C276.343140,297.003845 276.358582,310.474182 276.221100,323.942474 
	C276.187866,327.196625 277.248993,328.252960 280.566620,328.168549 
	C289.872864,327.931732 299.188232,328.052795 309.499969,328.042419 
M265.747650,172.499649 
	C265.747650,157.301300 265.747650,142.102951 265.747650,126.904610 
	C253.370239,150.630173 241.950470,174.493057 230.440384,198.312286 
	C229.255661,200.763962 230.017761,202.262955 231.756714,203.962341 
	C238.192047,210.251266 244.484161,216.686768 250.920303,222.974838 
	C252.670898,224.685165 254.022293,227.638885 257.478729,225.557953 
	C261.172150,223.334351 266.284363,223.423126 265.967072,216.485474 
	C265.312927,202.183411 265.753479,187.831268 265.747650,172.499649 
M265.748230,286.670288 
	C267.569000,279.371429 261.844727,278.556427 257.259857,276.389008 
	C252.879257,274.318115 251.557053,278.047760 249.584488,280.007355 
	C234.810272,294.684540 220.184143,309.510895 205.542679,324.321259 
	C204.684540,325.189301 203.239426,325.819946 203.636597,327.686981 
	C204.434067,327.774750 205.238937,327.919800 206.047409,327.944000 
	C224.531174,328.497498 243.033112,327.403564 261.509369,328.541260 
	C264.782471,328.742828 265.858032,327.327972 265.821350,324.113037 
	C265.682617,311.951385 265.751892,299.787384 265.748230,286.670288 
M397.653046,325.170441 
	C400.010834,320.587250 402.655304,316.126434 404.673981,311.398438 
	C411.372498,295.709076 416.121979,279.497681 416.899658,262.313904 
	C417.031189,259.407837 416.810669,256.979980 412.905701,256.934387 
	C406.922882,256.864594 400.938293,256.644409 394.963165,256.325104 
	C390.997040,256.113159 389.338104,257.732788 389.011261,261.757751 
	C388.050232,273.591553 385.762024,285.291412 380.462921,295.902679 
	C376.727661,303.382355 376.968628,309.720001 380.977570,316.743591 
	C384.382477,322.708893 387.042694,329.099243 390.213470,335.677216 
	C393.806915,332.582123 395.235199,328.967896 397.653046,325.170441 
M128.183701,278.430786 
	C131.902878,299.091217 139.416351,318.144989 152.295319,336.507660 
	C157.100311,326.030151 161.405975,316.741302 165.599701,307.402222 
	C166.331772,305.771973 165.437576,304.155792 164.718857,302.637512 
	C158.542831,289.591095 154.525620,275.955536 153.699997,261.486938 
	C153.486160,257.739349 151.740814,256.151123 148.009811,256.250824 
	C142.190918,256.406342 136.364197,256.476379 130.545532,256.355103 
	C126.940727,256.279968 125.912262,258.042786 126.027992,261.281433 
	C126.224480,266.780182 127.001564,272.193573 128.183701,278.430786 
M234.523895,150.172089 
	C221.260147,154.519348 209.612305,161.486191 199.149963,171.299469 
	C206.665009,178.715576 213.228195,186.122070 221.402664,193.003754 
	C228.678268,177.723114 235.627319,163.128342 242.755493,148.157364 
	C239.493042,148.049393 237.457047,149.321259 234.523895,150.172089 
M332.393799,162.099747 
	C322.636475,155.744415 312.169312,151.010864 299.394714,147.400177 
	C306.933228,163.197998 313.865234,177.724823 321.216858,193.130997 
	C326.090057,188.358932 330.337677,184.258011 334.520264,180.091782 
	C343.969452,170.679565 343.956390,170.666443 332.393799,162.099747 
M328.383850,232.040619 
	C325.024445,225.525009 322.667694,218.469742 318.263519,211.884827 
	C316.387939,213.597794 315.007690,214.752182 313.748749,216.026459 
	C308.267700,221.574371 302.689514,227.035751 297.422607,232.781555 
	C295.006104,235.417786 298.618805,245.476440 302.028412,245.564362 
	C312.566711,245.836090 323.116486,245.663589 334.462952,245.663589 
	C332.293121,240.802017 330.492493,236.767609 328.383850,232.040619 
M234.343323,245.769135 
	C236.006042,245.744308 237.680084,245.834091 239.329208,245.671448 
	C243.064896,245.303070 248.025024,235.704407 245.503632,233.191452 
	C238.471527,226.182877 231.041412,219.573669 223.553421,212.606705 
	C218.757034,222.811035 212.949081,233.486816 208.192749,245.773178 
	C217.199188,245.773178 225.292572,245.773178 234.343323,245.769135 
M325.201019,339.151184 
	C313.710999,339.162140 302.218964,339.042053 290.731384,339.214844 
	C273.592926,339.472595 276.712616,335.741425 276.355865,354.654175 
	C276.290405,358.126404 278.093689,358.863464 281.115326,358.587494 
	C298.015320,357.044220 313.532410,351.429230 328.004028,342.742767 
	C329.285004,341.973846 330.868500,341.283020 331.466034,339.142670 
	C329.390747,339.142670 327.738007,339.142670 325.201019,339.151184 
M219.591293,339.181946 
	C216.577087,339.181946 213.562897,339.181946 210.548691,339.181946 
	C226.103683,350.674530 243.219482,356.821411 261.944458,358.532288 
	C264.518463,358.767456 265.661133,357.674011 265.653076,355.154602 
	C265.641388,351.499664 265.493713,347.833679 265.722778,344.192474 
	C265.973267,340.210449 264.251495,339.050415 260.438141,339.101257 
	C247.148453,339.278473 233.855164,339.184235 219.591293,339.181946 
M172.629654,256.362640 
	C163.790176,256.269501 163.022720,257.019745 164.440781,265.672333 
	C165.814117,274.052155 168.002075,282.244690 171.024750,290.193970 
	C171.407333,291.200165 171.484558,292.579620 173.530624,292.694000 
	C179.092987,281.053040 184.718307,269.280334 190.883911,256.376923 
	C184.426682,256.376923 179.007278,256.376923 172.629654,256.362640 
M357.703796,268.862122 
	C361.448730,276.690582 365.193665,284.519073 369.127594,292.742645 
	C373.191132,287.282013 379.270477,265.050354 378.646698,259.763763 
	C378.432770,257.950684 377.533447,256.994690 375.869202,256.825409 
	C368.313934,256.056915 360.769470,256.366669 352.262634,256.519440 
	C354.228577,261.020874 355.794525,264.606384 357.703796,268.862122 
M429.434906,246.838699 
	C426.965942,252.042999 427.702118,255.642212 431.474640,255.708450 
	C442.112793,255.895248 452.756531,255.791656 463.397919,255.755951 
	C466.364899,255.745987 468.129272,253.945770 468.463593,251.215164 
	C468.823120,248.278473 466.533234,247.256973 464.125061,246.704315 
	C463.162903,246.483490 462.146881,246.412918 461.155792,246.415680 
	C450.848633,246.444366 440.541595,246.501953 429.434906,246.838699 
M114.718208,253.082748 
	C115.672386,248.259933 113.453278,246.374329 108.797104,246.395554 
	C99.475006,246.438065 90.152016,246.368011 80.829910,246.285065 
	C77.063644,246.251572 74.469666,247.870483 74.568031,251.724365 
	C74.663559,255.466568 77.754784,255.849747 80.784180,255.835846 
	C90.439682,255.791534 100.095406,255.789749 109.750809,255.733246 
	C111.542267,255.722778 113.516388,256.005920 114.718208,253.082748 
M266.303040,438.202881 
	C266.204559,442.005890 266.210999,446.420929 271.196289,446.394592 
	C276.373077,446.367279 275.817535,441.730438 275.817444,438.077087 
	C275.817230,429.752869 275.701813,421.427643 275.802917,413.104889 
	C275.845551,409.594086 275.721832,407.056763 270.940277,407.058105 
	C265.940155,407.059509 266.259766,410.035980 266.270203,413.300293 
	C266.295715,421.291473 266.284088,429.282806 266.303040,438.202881 
M266.292694,61.209148 
	C266.290710,70.824867 266.407532,80.442818 266.226837,90.055168 
	C266.156830,93.780296 267.605133,94.997566 271.199005,94.970284 
	C274.589111,94.944534 275.970337,93.732460 275.927490,90.296906 
	C275.809723,80.848175 275.894897,71.396957 275.890686,61.946720 
	C275.889313,58.903763 275.169525,56.084148 271.699585,55.569920 
	C268.324646,55.069767 267.227142,57.728321 266.292694,61.209148 
M130.884323,118.381226 
	C137.615723,125.274078 144.302078,132.211685 151.092499,139.045898 
	C156.709808,144.699417 157.051178,144.612946 162.227814,137.801926 
	C160.834274,135.451004 139.432297,113.406677 137.378754,112.166481 
	C135.686386,111.144409 133.924149,110.806908 132.221786,111.946892 
	C130.111816,113.359833 129.931030,115.451782 130.884323,118.381226 
M381.964661,139.787079 
	C383.869385,141.440338 385.126160,145.312363 388.576569,141.867462 
	C395.981384,134.474426 403.397858,127.091209 410.681671,119.579979 
	C412.614563,117.586700 413.884857,114.904366 411.414978,112.511642 
	C408.763641,109.943184 406.263611,111.401512 404.063782,113.590599 
	C396.885803,120.733635 389.703827,127.872719 382.512451,135.002319 
	C381.261353,136.242645 380.180481,137.478424 381.964661,139.787079 
M385.914734,350.504669 
	C385.229706,348.995880 384.569489,347.475220 383.855499,345.980255 
	C380.268860,338.470398 377.214447,337.284607 369.253754,340.093201 
	C376.361786,347.056641 383.557007,354.105499 390.623993,361.028748 
	C389.278351,358.002655 387.762115,354.592926 385.914734,350.504669 
M164.817886,350.317535 
	C167.909561,346.884949 171.916245,344.201050 175.029831,338.754333 
	C169.804291,339.983032 164.905716,337.033051 162.431351,340.950592 
	C157.934570,348.070068 154.507492,355.865173 150.633987,363.378326 
	C150.926849,363.572784 151.219696,363.767273 151.512558,363.961731 
	C155.778259,359.577606 160.043976,355.193451 164.817886,350.317535 
M367.583099,319.413269 
	C365.625641,322.182495 363.668213,324.951752 361.062592,328.637939 
	C366.207214,328.477570 370.195862,329.470215 374.274597,327.944397 
	C373.683502,324.674011 372.237976,322.065277 370.964417,319.394470 
	C370.216888,317.826874 369.245239,317.411224 367.583099,319.413269 
M178.079605,323.288818 
	C176.498932,321.549561 175.857605,318.913300 173.191071,317.816559 
	C171.142380,321.094910 169.148682,324.032990 168.493988,328.192780 
	C172.852676,328.928772 176.741623,328.544342 181.103165,327.403381 
	C180.015594,325.904938 179.257187,324.859985 178.079605,323.288818 
z"></path>
</svg><style>@media (prefers-color-scheme: light) { :root { filter: none; } }
@media (prefers-color-scheme: dark) { :root { filter: none; } }
</style></svg>